<svg data-mood="neutral" viewBox="3 3 18 16" fill="none" xmlns="http://www.w3.org/2000/svg">
  <g data-part="rig" style="transform-origin:12px 13.5px">
    <g data-part="antenna" style="transform-origin:12px 7.5px">
      <rect x="7" y="4.5" width="1" height="3" rx="0.5" fill="currentColor"/>
      <circle cx="7.5" cy="4.2" r="0.8" fill="currentColor"/>
      <rect x="16" y="4.5" width="1" height="3" rx="0.5" fill="currentColor"/>
      <circle cx="16.5" cy="4.2" r="0.8" fill="currentColor"/>
      <circle data-part="rec" cx="16.5" cy="4.2" r="0.55" fill="var(--wc-record)" opacity="0"/>
    </g>
    <rect x="4.5" y="8.5" width="15" height="10" rx="2" fill="currentColor"/>
    <circle class="eye-white" data-part="eyeL" cx="8" cy="12" r="1.8" fill="var(--face-cut)"/>
    <circle class="eye-white" data-part="eyeR" cx="16" cy="12" r="1.8" fill="var(--face-cut)"/>
    <circle class="pupil" data-part="pupilL" cx="8" cy="12" r="0.75" fill="currentColor"/>
    <circle class="pupil" data-part="pupilR" cx="16" cy="12" r="0.75" fill="currentColor"/>
    <g class="face-fx" data-part="lids" opacity="0">
      <rect x="6" y="9.9" width="4" height="2.1" fill="currentColor"/>
      <rect x="14" y="9.9" width="4" height="2.1" fill="currentColor"/>
    </g>
    <g class="face-fx" data-part="blink" opacity="0">
      <line x1="6.2" y1="12" x2="9.8" y2="12" stroke="var(--face-cut)" stroke-width="0.5" stroke-linecap="round"/>
      <line x1="14.2" y1="12" x2="17.8" y2="12" stroke="var(--face-cut)" stroke-width="0.5" stroke-linecap="round"/>
    </g>
    <g class="face-fx" data-part="joy" opacity="0">
      <path d="M6.2 12.4 Q8 10.5 9.8 12.4" stroke="var(--face-cut)" stroke-width="1.1" stroke-linecap="round" fill="none"/>
      <path d="M14.2 12.4 Q16 10.5 17.8 12.4" stroke="var(--face-cut)" stroke-width="1.1" stroke-linecap="round" fill="none"/>
    </g>
    <g class="face-fx" data-part="squeeze" opacity="0">
      <polyline points="6.7,10.9 9.3,12 6.7,13.1" stroke="var(--face-cut)" stroke-width="0.9" stroke-linecap="round" stroke-linejoin="round" fill="none"/>
      <polyline points="17.3,10.9 14.7,12 17.3,13.1" stroke="var(--face-cut)" stroke-width="0.9" stroke-linecap="round" stroke-linejoin="round" fill="none"/>
    </g>
    <rect class="face-fx" data-part="scan" x="5.2" y="8.5" width="13.6" height="0.45" fill="var(--face-cut)" opacity="0"/>
    <g data-part="mouth">
      <line data-state="flat" x1="9" y1="16" x2="15" y2="16" stroke="var(--face-cut)" stroke-width="1" stroke-linecap="round"/>
      <polyline data-state="zigzag" points="9,16 10.2,15.2 11.4,16.8 12.6,15.2 13.8,16.8 15,16" stroke="var(--face-cut)" stroke-width="0.8" stroke-linecap="round" stroke-linejoin="round" fill="none" opacity="0"/>
      <line data-state="slant" x1="9" y1="16.3" x2="15" y2="15.7" stroke="var(--face-cut)" stroke-width="1" stroke-linecap="round" opacity="0"/>
      <ellipse data-state="o" cx="12" cy="16" rx="0.9" ry="1.1" fill="var(--face-cut)" opacity="0"/>
      <ellipse data-state="yawn" cx="12" cy="16" rx="1.3" ry="1.6" fill="var(--face-cut)" opacity="0"/>
      <path data-state="grin" d="M8.2 15 Q12 18.8 15.8 15" stroke="var(--face-cut)" stroke-width="1.2" stroke-linecap="round" fill="none" opacity="0"/>
    </g>
    <path class="face-fx" data-part="sweat" d="M18.2 9.3 Q17.4 10.6 18.2 11.1 Q19 10.6 18.2 9.3 Z" fill="var(--wc-info)" opacity="0"/>
    <g class="face-fx" data-part="sparkle" opacity="0">
      <path d="M5.2 4.7 L5.45 5.35 L6.1 5.6 L5.45 5.85 L5.2 6.5 L4.95 5.85 L4.3 5.6 L4.95 5.35 Z" fill="currentColor" style="transform-origin:5.2px 5.6px"/>
      <path d="M19.2 5.5 L19.4 6.05 L19.95 6.25 L19.4 6.45 L19.2 7 L19 6.45 L18.45 6.25 L19 6.05 Z" fill="currentColor" style="transform-origin:19.2px 6.25px"/>
    </g>
    <g data-part="dots">
      <circle cx="18.3" cy="6.6" r="0.4" fill="currentColor" opacity="0"/>
      <circle cx="19.35" cy="6.6" r="0.4" fill="currentColor" opacity="0"/>
      <circle cx="20.4" cy="6.6" r="0.4" fill="currentColor" opacity="0"/>
    </g>
  </g>
</svg>
